# xmcd
#
# Track frame offsets:
#	150
#	18158
#	31691
#	50563
#	66995
#	80645
#	96548
#	114738
#	132837
#	151440
#
# Disc length: 2339 seconds
#
# Revision: 0
# Processed by: cddbd v1.5.1PL0 Copyright (c) Steve Scherf et al.
# Submitted via: EasyCDDAExtractor 4.6.9.1
#
DISCID=8309210a
DTITLE=The Velmas - Recess
DYEAR=2004
DGENRE=Rock and Roll
TTITLE0=Silenced
TTITLE1=Out There
TTITLE2=Orangeworker
TTITLE3=Restless, Restless
TTITLE4=Listen (live)
TTITLE5=Your Everything (live)
TTITLE6=Red Sky (live)
TTITLE7=Out of the Hole (live)
TTITLE8=I've Been Thinkin' (live)
TTITLE9=Hidden Track
EXTD=
EXTT0=
EXTT1=
EXTT2=
EXTT3=
EXTT4=
EXTT5=
EXTT6=
EXTT7=
EXTT8=
EXTT9=
PLAYORDER=
